<svg xmlns="http://www.w3.org/2000/svg" version="1.1" xmlns:xlink="http://www.w3.org/1999/xlink" xmlns:svgjs="http://svgjs.com/svgjs" width="1440" height="250" preserveAspectRatio="none" viewBox="0 0 1440 250"><g mask="url(&quot;#SvgjsMask1000&quot;)" fill="none"><rect width="1440" height="250" x="0" y="0" fill="#0e2a47"></rect><path d="M24 250L274 0L527.5 0L277.5 250z" fill="url(#SvgjsLinearGradient1001)"></path><path d="M264.6 250L514.6 0L763.6 0L513.6 250z" fill="url(#SvgjsLinearGradient1001)"></path><path d="M481.20000000000005 250L731.2 0L768.7 0L518.7 250z" fill="url(#SvgjsLinearGradient1001)"></path><path d="M736.8000000000001 250L986.8000000000001 0L1216.3000000000002 0L966.3000000000001 250z" fill="url(#SvgjsLinearGradient1001)"></path><path d="M1414 250L1164 0L1021.5 0L1271.5 250z" fill="url(#SvgjsLinearGradient1002)"></path><path d="M1198.4 250L948.4000000000001 0L667.9000000000001 0L917.9000000000001 250z" fill="url(#SvgjsLinearGradient1002)"></path><path d="M944.8 250L694.8 0L471.29999999999995 0L721.3 250z" fill="url(#SvgjsLinearGradient1002)"></path><path d="M692.1999999999999 250L442.19999999999993 0L209.69999999999993 0L459.69999999999993 250z" fill="url(#SvgjsLinearGradient1002)"></path><path d="M1222.0608377631531 250L1440 32.06083776315313L1440 250z" fill="url(#SvgjsLinearGradient1001)"></path><path d="M0 250L217.93916223684687 250L 0 32.06083776315313z" fill="url(#SvgjsLinearGradient1002)"></path></g><defs><mask id="SvgjsMask1000"><rect width="1440" height="250" fill="#ffffff"></rect></mask><linearGradient x1="0%" y1="100%" x2="100%" y2="0%" id="SvgjsLinearGradient1001"><stop stop-color="rgba(15, 70, 185, 0.2)" offset="0"></stop><stop stop-opacity="0" stop-color="rgba(15, 70, 185, 0.2)" offset="0.66"></stop></linearGradient><linearGradient x1="100%" y1="100%" x2="0%" y2="0%" id="SvgjsLinearGradient1002"><stop stop-color="rgba(15, 70, 185, 0.2)" offset="0"></stop><stop stop-opacity="0" stop-color="rgba(15, 70, 185, 0.2)" offset="0.66"></stop></linearGradient></defs></svg>